<?xml version="1.0" encoding="UTF-8"?>
<svg id="Layer_2" data-name="Layer 2" xmlns="http://www.w3.org/2000/svg" viewBox="0 0 403.071 519.799">
  <defs>
    <style>
      .cls-1 {
        fill: #e2a215;
      }

      .cls-2 {
        fill: #3d5b25;
      }

      .cls-3 {
        fill: none;
      }

      .cls-4 {
        fill: #5abf34;
      }

      .cls-5 {
        fill: #e3a114;
      }
    </style>
  </defs>
  <path class="cls-5" d="M84.065,0c.022,92.355.036,465.737,0,519.799-28.126-14.672-55.829-29.344-83.955-44.016-.006-27.106-.079-320.514-.11-440.112L84.065,0Z"/>
  <g>
    <path class="cls-3" d="M161.549,179.216v-50.623s-.208,35.873,0,50.623Z"/>
    <path class="cls-3" d="M328.502,394.509c0-34.449-.097-70.909-.145-106.364.048,35.455-.28,70.914.145,106.364Z"/>
    <path class="cls-4" d="M367.097,160.712c-17.326-18.277-37.534-32.856-59.392-45.136C237.499,76.134,84.065,0,84.065,0c.023,92.355-.023,184.71,0,277.065.438.177,77-34.31,77-34.31v-114.162c32.863,5.715,101.929,44.293,136.397,85.852,13.638,15.047,24.289,31.678,28.739,51.765,1.597,7.21,1.855,14.567,1.865,21.936.048,35.455,0,71.915,0,106.364.223,18.578-7.502,31.764-22.697,41.373-1.398.884-2.739,1.857-4.106,2.788,35.097-7.85,88.552-30.031,101.803-62.95.02-49.025-.021-98.051,0-147.075-3.871-27.062-17.659-48.619-35.968-67.933Z"/>
    <path class="cls-1" d="M328.065,394.509c0-35.453.048-70.909,0-106.364-.01-7.369-.268-14.726-1.865-21.936-4.45-20.087-15.101-36.718-28.739-51.765-34.468-41.559-103.534-80.137-136.397-85.852v69.738h0c22.655,7.116,44.052,19.885,63.513,32.949,9.051,6.075,15.852,14.448,20.006,24.502,4.122,9.976,4.044,21.407,4.044,31.992.052,13.802.157,27.604.142,41.406-.013,12.702-7.062,19.649-20.247,19.318-8.587-.215-17.096-1.865-24.728-6.025-38.825-21.162-119.293-65.232-119.731-65.409.046,26.849-.046,53.698,0,80.547,26.112,13.919,52.756,27.838,78.868,41.755,3.224,1.489,6.485,2.904,9.665,4.483,27.195,13.501,54.54,26.592,83.098,37.12,15.842,5.84,30.638,3.544,45.565-2.3,1.367-.932,2.709-1.905,4.106-2.788,15.195-9.609,22.697-22.882,22.697-41.373Z"/>
  </g>
  <path class="cls-2" d="M248.628,289.203s.157,26.176.142,39.978c-.013,12.702-7.062,19.649-20.247,19.318-8.587-.215-17.096-1.865-24.728-6.025-38.825-21.162-80.64-44.011-119.404-65.286-.604-.332,76.672-34.433,76.672-34.433l87.563,46.447Z"/>
  <path class="cls-2" d="M84.065,519.799c.036-54.062-.036-108.124,0-162.187,26.112,13.919,52.756,27.838,78.868,41.755-.06,23.086-.139,53.337-.161,76.426l-78.708,44.006Z"/>
</svg>