<?xml version="1.0" encoding="UTF-8"?>
<svg id="Layer_1" data-name="Layer 1" xmlns="http://www.w3.org/2000/svg" viewBox="0 0 803 238.49">
  <defs>
    <style>
      .cls-1 {
        letter-spacing: -.07em;
      }

      .cls-2 {
        fill: #e2a215;
      }

      .cls-3 {
        fill: #3d5b25;
      }

      .cls-4 {
        fill: #e7a928;
      }

      .cls-5 {
        font-family: TimesNewRomanPSMT, 'Times New Roman';
        font-size: 51px;
      }

      .cls-5, .cls-6 {
        fill: #3d5b25;
      }

      .cls-7 {
        letter-spacing: 0em;
      }

      .cls-8 {
        letter-spacing: -.02em;
      }

      .cls-9 {
        fill: #fff;
        stroke: #3d5b25;
        stroke-linecap: round;
        stroke-miterlimit: 10;
        stroke-width: 3px;
      }

      .cls-10 {
        fill: #5abf34;
      }

      .cls-11 {
        fill: #e2a215;
      }

      .cls-12 {
        fill: #63ba46;
      }
    </style>
  </defs>
  <g>
    <path class="cls-4" d="M631.84,111.74c-4.33,7.75-8.46,15.63-16.26,20.62-2.32,1.48-4.65,2.95-7.61,2.97-5.45.04-8.11-2.05-9.47-7.35-.43-1.68-.28-3.54-1.41-5.2-3.41,2.88-6.04,6.47-9.79,8.92-13.65,8.93-32.01.69-34.15-15.54-2.53-19.25,4.96-34.42,19.83-46.09,6.12-4.8,13.51-6.63,21.35-5.25,5.3.93,9.16,4.22,12.38,8.34.67.86,1.31,1.74,2.34,3.1,2.15-7.39,4.2-14.29,6.15-21.22,1.49-5.31,2.79-10.67,4.28-15.98,1.09-3.88-.46-6.27-4.49-6.53-1.66-.1-3.37.17-5-.09-1.03-.16-3.18,1.19-2.96-1.06.17-1.72-.05-4.23,3.32-4.24,7.09-.01,14.19-.43,21.28-.79,2.37-.12,2.98.27,2.2,2.87-2.96,9.82-24.09,84.94-26.32,93.03-.58,2.1-.26,3.98,1.47,5.43,1.83,1.53,3.63.53,5.21-.39,5.09-2.95,7.72-8.11,11.01-12.66.25-.35.34-.82.56-1.2q2.15-3.58,6.06-1.69ZM565.16,112.82c0,1-.04,2,0,3,.56,11.05,10.45,16.61,20.06,11.39,4.32-2.35,7.56-5.72,10.1-9.81,5.58-8.99,8.33-19.01,9.85-29.32.96-6.48-.83-12.29-6.78-16.18-7.5-4.89-16.42-.02-21.09,5.78-8.17,10.15-11.12,22.37-12.16,35.13Z"/>
    <path class="cls-4" d="M523.9,78.27c1.11-3.21,2.42-6.05,3.02-9.03.41-2.05,1.26-2.86,3.13-3.04.88-.08,1.75-.22,2.63-.29,6.24-.54,6.17-.56,4.36,5.67-4.17,14.41-14.24,48.26-14.58,50.91-.3,2.34-.17,4.66,2.24,5.76,2.25,1.03,3.81-.83,5.13-2.19,3.89-3.98,6.98-8.58,9.46-13.55.83-1.68,1.56-1.95,3.25-1.23,2.01.86,1.25,1.9.61,3.14-3.64,7.02-7.58,13.86-14.21,18.52-6.38,4.48-13.76,2.67-15.55-3.7-.55-1.97-.42-4.13-.65-6.67-1.79,2.01-3.25,3.82-4.89,5.46-8.47,8.49-20.24,9.86-29.95,3.29-7.45-5.05-11.16-12.29-11.53-21.27-.63-15.18,5.69-27.38,16.83-37.02,6.61-5.72,14.34-9.48,23.7-8.37,7.46.89,12.24,5.04,15.47,11.45.25.49.4,1.03.66,1.51.09.17.34.26.89.65ZM479.04,110.95c0,1-.06,2.01.01,3,.34,4.83,1.17,9.49,5.44,12.6,7.16,5.21,17.14,2.47,22.49-4.2,5.48-6.83,8.61-14.86,10.98-23.22,1.55-5.46,2.82-10.93,1.78-16.66-1.68-9.3-11.33-15.13-19.75-11.86-4.29,1.67-7.93,4.32-10.59,8.09-6.82,9.65-10.42,20.37-10.37,32.25Z"/>
    <path class="cls-12" d="M309.67,99.87c-9.46,0-18.92.08-28.37-.05-2.31-.03-2.87.8-2.67,2.88,1.43,15.42,14.26,27.03,30.55,24.33,8.68-1.44,15.33-5.45,19.79-12.92,1.5-2.51,2.72-3.11,5.39-1.46,4.14,2.56,4.21,2.33,1.5,6.6-10.19,16.09-29.93,19.62-45.7,13.2-15.83-6.44-24.55-27.98-18.9-44.08,3.53-10.05,9.47-17.7,19.07-22.33,6.18-2.99,12.9-3.4,19.51-2.64,6.74.78,13.01,3.16,18.26,7.89,6.78,6.1,10.98,13.49,12,22.54.69,6.04.55,6.06-5.73,6.06-8.23,0-16.47,0-24.7,0ZM328.4,92.57c1.49,0,3.04.22,2.3-2.23-4.01-13.4-14.18-19.08-26.08-18.98-12.69.11-20.52,7.14-24.62,18.68-.78,2.21-.02,2.6,2.05,2.57,7.56-.1,38.45-.04,46.34-.04Z"/>
    <path class="cls-12" d="M417.51,122.81c-9.33,9.78-20.42,14.02-33.46,12.24-9.41-1.28-17.12-6.31-22.58-13.89-10.85-15.07-10.21-36.23,6.28-50.31,11.33-9.67,35.11-12.82,49.76,6.51,0-3.56.13-6.45-.04-9.32-.15-2.41.57-3.4,3.14-3.31,6.17.22,4.98-.53,4.99,4.88.05,20.24-.05,40.48.1,60.72.02,2.94-.93,3.66-3.58,3.35-2.23-.26-5.18.89-4.67-3.36.29-2.47.05-5.01.05-7.51ZM390.73,71.63c-15.85-.72-27.39,12.65-27.66,27.03-.3,15.96,12.47,28.71,26.97,28.71,16.15,0,28.15-11.28,28.14-27.89-.01-16.77-13.17-28.72-27.44-27.84Z"/>
    <path class="cls-4" d="M751.27,88.75c2.53-3.85,5.09-7.69,7.57-11.57,2.58-4.05,5.42-7.82,9.38-10.67,3.87-2.79,10.7-2.74,13.56.3,2.52,2.68,2.2,5.94,1.51,9.1-.52,2.36-2.21,3.66-4.68,4.13-2.98.57-4.8-.81-6.29-3.08-2.82-4.31-4.95-4.51-7.9-.25-3.91,5.63-7.5,11.48-11.2,17.26-.8,1.25-.88,2.5-.51,4.08,1.58,6.66,5.4,27.39,9.33,28.47,3.54.98,5.84-1.87,8.21-4.08,2.54-2.38,4.4-5.27,6.3-8.12.83-1.24,1.51-1.68,2.89-.86,1.31.78,1.21,1.69.54,2.76-4.14,6.59-8.4,13.01-15.44,17.06-6.84,3.94-13.54,2.3-15.96-6.28l-2.36-8.61c-.75-2.75-1.29-5.55-2.06-8.92-2.98,3.48-13.2,21.49-19.07,24.63-6.36,3.4-13.39.74-15.27-5.73-1.02-3.52.85-7.33,4.28-8.73,3.23-1.32,5.95-.18,7.95,3.34.33.58.6,1.19.91,1.78,1.46,2.81,3.69,3.1,5.61.54,4.99-6.65,8.88-14.01,13.28-21.04.99-1.58.53-3.36.1-4.88-1.81-6.48-2.86-13.13-4.39-19.66-.25-1.07-.66-2.13-1.18-3.1-1.76-3.36-4.79-3.87-7.68-1.42-3.05,2.58-4.7,6.09-6.55,9.49-.56,1.04-.89,2.68-2.88,1.68-1.86-.93-1.08-2.05-.55-3.29,2.54-5.92,5.17-11.81,10.59-15.76,7.89-5.76,15.12-3,17.48,6.55q1.21,4.9,3.62,14.7c.29.07.57.13.86.2Z"/>
    <path class="cls-4" d="M704.28,92.84c-.11,17.5-11.2,35.71-28.12,41.28-16.41,5.4-33.67-5.99-35.57-23.14-2.13-19.27,10.55-39.69,28.1-45.15,13.59-4.23,26.84.39,33.3,15.18,1.75,4,2.6,8.22,2.3,11.84ZM691.96,87.94c0-1.33.15-2.69-.02-4-1.27-9.37-6.59-16.64-17.18-14.53-3.3.66-5.85,2.62-8.18,4.83-6.69,6.35-9.57,14.72-11.83,23.31-2.07,7.86-3.34,15.87-.62,23.86,1.8,5.3,5.21,8.88,11.2,9.39,6.88.58,11.77-2.93,15.42-8.05,7.37-10.36,10.47-22.23,11.22-34.8Z"/>
    <path class="cls-12" d="M200.64,66.18c-.02-2.3.57-3.05,2.95-3,8.23.14,16.49-.35,24.69.18,6.84.45,13.92.34,20.09,4.55,7.89,5.38,10.65,12.97,10.21,22.04-.38,7.78-3.64,14.09-10.46,18.2-4.22,2.54-8.83,4-13.79,4.12-7.22.17-14.44.4-21.66.38-2.37,0-3.02.7-2.95,3.01.15,5.67-.02,11.35.09,17.02.04,2-.51,2.67-2.6,2.69-6.5.06-6.5.15-6.5-6.44,0-9.9.05-51.73-.06-62.74ZM223.62,104c3.8-.23,8.68.46,13.51-.67,6.9-1.6,12.09-7.76,12.17-14.67.09-8.01-4.2-13.7-11.68-15.48-8.66-2.06-17.46-.8-26.19-1.14-1.68-.07-1.68,1.03-1.68,2.21,0,9.24.03,18.48-.02,27.71-.01,1.64.61,2.09,2.15,2.06,3.56-.08,7.12-.03,11.74-.03Z"/>
    <path class="cls-12" d="M451.71,74.62c2.17-2.35,3.81-4.42,5.74-6.16,5.17-4.68,10.98-6.83,17.91-4.09,1.56.62,2.32,1.18,1,2.77-.63.75-1.07,1.67-1.53,2.55-.99,1.88-1.95,2.87-4.59,2.24-5.41-1.28-10.91,1.89-13.97,7.35-2.48,4.43-3.43,9.26-3.95,14.25-1.27,12.19-.38,24.4-.53,36.59-.03,2.76-.72,3.91-3.5,3.43-.32-.06-.67-.05-1,0-3.35.56-4.44-.6-4.4-4.2,0-20.45.04-39.45.04-61.05-.01-2.62.41-3.74,3.37-3.61,5.4.23,5.41.04,5.41,5.53,0,1.29,0,2.58,0,4.4Z"/>
    <path class="cls-12" d="M131.06,192.04c.35-.46.81-.65,1.39-.54-.2.85-.88.48-1.39.54Z"/>
    <g>
      <path class="cls-11" d="M52.4,32.32c0,34.1.01,171.94,0,191.9-10.38-5.42-20.61-10.83-30.99-16.25,0-10.01-.03-118.33-.04-162.48l31.03-13.17Z"/>
      <g>
        <path class="cls-10" d="M156.89,91.65c-6.4-6.75-13.86-12.13-21.93-16.66-25.92-14.56-82.56-42.67-82.56-42.67,0,34.1,0,68.19,0,102.29.16.07,28.43-12.67,28.43-12.67v-42.15c12.13,2.11,37.63,16.35,50.35,31.69,5.03,5.55,8.97,11.69,10.61,19.11.59,2.66.68,5.38.69,8.1.02,13.09,0,26.55,0,39.27.08,6.86-2.77,11.73-8.38,15.27-.52.33-1.01.69-1.52,1.03,12.96-2.9,32.69-11.09,37.58-23.24,0-18.1,0-36.2,0-54.3-1.43-9.99-6.52-17.95-13.28-25.08Z"/>
        <path class="cls-2" d="M142.48,177.96c0-13.09.02-26.18,0-39.27,0-2.72-.1-5.44-.69-8.1-1.64-7.42-5.57-13.56-10.61-19.11-12.72-15.34-38.22-29.58-50.35-31.69v25.75h0c8.36,2.63,16.26,7.34,23.45,12.16,3.34,2.24,5.85,5.33,7.39,9.05,1.52,3.68,1.49,7.9,1.49,11.81.02,5.1.06,10.19.05,15.29,0,4.69-2.61,7.25-7.47,7.13-3.17-.08-6.31-.69-9.13-2.22-14.33-7.81-44.04-24.08-44.2-24.15.02,9.91-.02,19.82,0,29.74,9.64,5.14,19.48,10.28,29.12,15.41,1.19.55,2.39,1.07,3.57,1.65,10.04,4.98,20.13,9.82,30.68,13.7,5.85,2.16,11.31,1.31,16.82-.85.5-.34,1-.7,1.52-1.03,5.61-3.55,8.38-8.45,8.38-15.27Z"/>
      </g>
      <path class="cls-6" d="M113.15,139.09s.06,9.66.05,14.76c0,4.69-2.61,7.25-7.47,7.13-3.17-.08-6.31-.69-9.13-2.22-14.33-7.81-29.77-16.25-44.08-24.1-.22-.12,28.31-12.71,28.31-12.71l32.33,17.15Z"/>
      <path class="cls-3" d="M52.4,224.22c.01-19.96-.01-39.92,0-59.88,9.64,5.14,19.48,10.28,29.12,15.41-.02,8.52-.05,19.69-.06,28.21l-29.06,16.25Z"/>
    </g>
  </g>
  <text class="cls-5" transform="translate(279.71 195.27)"><tspan x="0" y="0">Robotics</tspan><tspan class="cls-8" x="181.34" y="0"> </tspan><tspan class="cls-1" x="193.17" y="0">T</tspan><tspan class="cls-7" x="220.76" y="0">eam 5414</tspan></text>
  <line class="cls-9" x1="199.22" y1="179.25" x2="265.98" y2="179.25"/>
  <line class="cls-9" x1="716.85" y1="178.77" x2="783.62" y2="178.77"/>
</svg>